<?xml version="1.0" encoding="UTF-8" standalone="no"?>
<!-- Created with Inkscape (http://www.inkscape.org/) -->
<svg id="svg4190" xmlns:rdf="http://www.w3.org/1999/02/22-rdf-syntax-ns#" xmlns="http://www.w3.org/2000/svg" height="256" viewBox="0 0 256 256" width="256" version="1.1" xmlns:cc="http://creativecommons.org/ns#" xmlns:dc="http://purl.org/dc/elements/1.1/">
 <metadata id="metadata4196">
  <rdf:RDF>
   <cc:Work rdf:about="">
    <dc:format>image/svg+xml</dc:format>
    <dc:type rdf:resource="http://purl.org/dc/dcmitype/StillImage"/>
    <dc:title/>
   </cc:Work>
  </rdf:RDF>
 </metadata>
 <g id="g4200">
  <path id="path4208" fill="#caf700" d="m27.5 247.52c-0.55-0.19434-2.7143-0.64063-4.8097-0.99175-2.317-0.38827-5.3306-2.0125-7.6916-4.1455-7.508-6.78-7.0887 0.45-6.7775-116.88l0.2785-105 2.373-3.817c1.3052-2.0995 4.1974-5.0245 6.427-6.5l4.054-2.683h106.65 106.65l4.0538 2.6827c2.2296 1.4755 5.1217 4.4005 6.427 6.5l2.37 3.817 0.3 104.5c0.21072 73.551-0.0248 105.62-0.79511 108.27-0.60197 2.0716-2.5297 5.4012-4.2838 7.399-6.3998 7.2889 1.1973 6.8137-112.22 7.0197-56.1 0.10188-102.45 0.0262-103-0.16811z"/>
  <path id="path4206" fill="#fc9300" d="m27.5 247.52c-0.55-0.19434-2.7143-0.64063-4.8097-0.99175-2.317-0.38827-5.3306-2.0125-7.6916-4.1455-7.508-6.78-7.0887 0.45-6.7775-116.88l0.2785-105 2.373-3.817c1.3052-2.0995 4.1974-5.0245 6.427-6.5l4.054-2.683h106.65 106.65l4.0538 2.6827c2.2296 1.4755 5.1217 4.4005 6.427 6.5l2.37 3.817 0.3 104.5c0.21072 73.551-0.0248 105.62-0.79511 108.27-0.60197 2.0716-2.5297 5.4012-4.2838 7.399-6.3998 7.2889 1.1973 6.8137-112.22 7.0197-56.1 0.10188-102.45 0.0262-103-0.16811zm113.53-33.551c15.896-1.9387 27.865-7.1478 41.351-17.997 22.609-18.188 36.759-42.819 39.122-68.099 1.0277-10.996-0.93621-17.069-7.9802-24.677-11.25-12.152-23.69-15.267-46.74-11.704-17.83 2.755-23.06 1.902-52.28-8.515-15.497-5.525-25.962-4.327-36.735 4.205-19.358 15.334-23.239 58.554-7.586 84.484 13.156 21.793 33.217 37.274 54.225 41.844 7.757 1.6877 6.7183 1.6595 16.621 0.45168z"/>
  <path id="path4204" fill="#93dc00" d="m120.5 230.42c-3.85-0.85241-9.25-2.5926-12-3.8671s-7.7-3.0804-11-4.0132c-7.4025-2.0923-20.353-8.8542-27.965-14.601-7.286-5.5-19.577-19.49-24.714-28.13-4.628-7.78-8.936-18.8-12.053-30.81-1.8491-7.1276-2.2078-11.245-2.2214-25.5-0.01004-10.546 0.48938-19.278 1.3155-23 3.075-13.853 10.175-26.783 19.168-34.908 5.666-5.119 16.931-10.318 26.762-12.351 14.454-2.989 27.098 0.098 42.958 10.483 4.5375 2.9719 8.25 5.8248 8.25 6.3399 0 1.3249 0.30532 1.4346-11.121-3.9945-18.536-8.806-28.613-10.05-42.436-5.238-26.646 9.276-37.558 29.036-36.178 65.509 0.59646 15.772 2.934 25.728 9.2499 39.398 4.5785 9.9097 12.341 20.803 13.79 19.353 0.77418-0.77418 0.33964-1.8624-1.5323-3.8372-9.843-10.38-15.738-46.3-11.297-68.84 4.165-21.136 12.902-35.345 25.977-42.247 4.595-2.425 6.029-2.66 16.046-2.631 10.604 0.03051 11.551 0.21964 26.303 5.2542 23.96 8.175 34.23 9.447 54.2 6.714 5.775-0.79015 14.775-1.4659 20-1.5016l9.5-0.06495-2.3704-1.9745c-1.3037-1.086-5.5787-2.9772-9.5-4.2026-9.2491-2.8904-27.956-3.0662-40.463-0.38019-8.9387 1.9196-10.758 1.7126-6.9385-0.78973 7.8071-5.1154 34.808-8.0943 47.086-5.1948 17.155 4.0513 26.516 11.899 40.468 33.927 10.631 16.784 9.1483 44.758-3.8255 72.181-4.8096 10.166-12.67 22.211-18.707 28.665-11.137 11.906-31.714 23.498-50.694 28.559-11.723 3.1254-26.469 3.8194-36.056 1.6968zm20.526-16.454c15.896-1.9387 27.865-7.1478 41.351-17.997 22.609-18.188 36.759-42.819 39.122-68.099 1.0277-10.996-0.93621-17.069-7.9802-24.677-11.25-12.152-23.69-15.267-46.74-11.704-17.83 2.755-23.06 1.902-52.28-8.515-15.497-5.525-25.962-4.327-36.735 4.205-19.358 15.334-23.239 58.554-7.586 84.484 13.156 21.793 33.217 37.274 54.225 41.844 7.757 1.6877 6.7183 1.6595 16.621 0.45168zm-9.92-148.72c-1.6068-3.1625-5.873-10.875-9.4804-17.14-7.7595-13.474-10.411-20.46-8.5969-22.647 2.1026-2.5335 3.8796-1.6533 10.772 5.3353 10.222 10.365 17.272 25.644 15.704 34.035-1.4898 7.9731-4.4836 8.1213-8.3986 0.41568z"/>
  <path id="path4202" fill="#1d1801" d="m115.23 225.9c-11.76-1.05-21.556-3.93-31.856-9.36-11.35-5.99-18.349-11.54-27.063-21.48-12.145-13.84-18.318-25.92-23.543-46.06-1.8491-7.1276-2.2078-11.245-2.2214-25.5-0.01004-10.546 0.48938-19.278 1.3155-23 3.075-13.853 10.175-26.783 19.168-34.908 5.666-5.119 16.931-10.318 26.762-12.351 14.454-2.989 27.098 0.098 42.958 10.483 4.5375 2.9719 8.25 5.8248 8.25 6.3399 0 1.3249 0.30532 1.4346-11.121-3.9945-18.536-8.806-28.613-10.05-42.436-5.238-26.646 9.276-37.558 29.036-36.178 65.509 0.42587 11.261 1.0767 15.999 3.1815 23.157 9.6838 32.937 32.422 56.6 62.107 64.632 10.707 2.897 31.202 3.1632 43.446 0.56416 16.479-3.498 32.679-13.311 47.384-28.702 22.012-23.04 31.795-52.612 26.176-79.125-3.5121-16.57-15.46-29.759-31.831-35.139-8.4314-2.7705-28.568-2.9505-40.562-0.36252-8.9361 1.9281-10.76 1.7228-6.9385-0.78124 4.2129-2.7604 17.915-5.6884 29.272-6.2551 18.449-0.92056 30.692 3.2197 42.576 14.398 11.8 11.104 16.92 24.664 16.92 44.804 0 42.6-34.516 87.27-76.933 99.567-5.8029 1.6822-23.803 4.1086-27.923 3.7639-0.90423-0.0756-5.8141-0.50883-10.911-0.96267zm15.88-160.65c-1.6068-3.1625-5.873-10.875-9.4804-17.14-7.7595-13.474-10.411-20.46-8.5969-22.647 2.1026-2.5335 3.8796-1.6533 10.772 5.3353 10.222 10.365 17.272 25.644 15.704 34.035-1.4898 7.9731-4.4836 8.1213-8.3986 0.41568z"/>
 </g>
</svg>
